<?xml version="1.0" encoding="UTF-8" standalone="no"?>
<!DOCTYPE svg PUBLIC "-//W3C//DTD SVG 1.1//EN"
 "http://www.w3.org/Graphics/SVG/1.1/DTD/svg11.dtd">
<!-- Generated by graphviz version 2.40.1 (20161225.0304)
 -->
<!-- Title: %3 Pages: 1 -->
<svg width="570pt" height="152pt"
 viewBox="0.00 0.00 569.98 152.00" xmlns="http://www.w3.org/2000/svg" xmlns:xlink="http://www.w3.org/1999/xlink">
<g id="graph0" class="graph" transform="scale(1 1) rotate(0) translate(4 148)">
<title>%3</title>
<polygon fill="#ffffff" stroke="transparent" points="-4,4 -4,-148 565.9785,-148 565.9785,4 -4,4"/>
<!-- abattery -->
<g id="node1" class="node">
<title>abattery</title>
<polygon fill="none" stroke="#ff0000" points="289.8924,-144 176.3547,-144 176.3547,-108 289.8924,-108 289.8924,-144"/>
<text text-anchor="middle" x="233.1235" y="-121.8" font-family="Helvetica,sans-Serif" font-size="14.00" fill="#000000">Alkaline Battery</text>
</g>
<!-- driver -->
<g id="node4" class="node">
<title>driver</title>
<polygon fill="none" stroke="#c0c0c0" points="452.9819,-117 359.9683,-117 359.9683,-81 452.9819,-81 452.9819,-117"/>
<text text-anchor="middle" x="406.4751" y="-94.8" font-family="Helvetica,sans-Serif" font-size="14.00" fill="#000000">Motor Driver</text>
</g>
<!-- abattery&#45;&gt;driver -->
<g id="edge6" class="edge">
<title>abattery&#45;&gt;driver</title>
<path fill="none" stroke="#ff0000" d="M289.8853,-117.1592C309.0527,-114.1738 330.4447,-110.842 349.6194,-107.8554"/>
<polygon fill="#ff0000" stroke="#ff0000" points="350.3749,-111.28 359.7171,-106.2827 349.2976,-104.3634 350.3749,-111.28"/>
</g>
<!-- mbattery -->
<g id="node2" class="node">
<title>mbattery</title>
<polygon fill="none" stroke="#ff0000" points="108.8351,-144 2.868,-144 2.868,-108 108.8351,-108 108.8351,-144"/>
<text text-anchor="middle" x="55.8516" y="-121.8" font-family="Helvetica,sans-Serif" font-size="14.00" fill="#000000">Power Bank</text>
</g>
<!-- raspi -->
<g id="node3" class="node">
<title>raspi</title>
<polygon fill="none" stroke="#c0c0c0" points="281.5406,-90 184.7065,-90 184.7065,-54 281.5406,-54 281.5406,-90"/>
<text text-anchor="middle" x="233.1235" y="-67.8" font-family="Helvetica,sans-Serif" font-size="14.00" fill="#000000">Raspberry Pi</text>
</g>
<!-- mbattery&#45;&gt;raspi -->
<g id="edge7" class="edge">
<title>mbattery&#45;&gt;raspi</title>
<path fill="none" stroke="#ff0000" d="M109.039,-109.7982C129.7289,-103.4957 153.5041,-96.2534 174.6713,-89.8055"/>
<polygon fill="#ff0000" stroke="#ff0000" points="175.9631,-93.0709 184.5092,-86.8087 173.9233,-86.3747 175.9631,-93.0709"/>
</g>
<!-- raspi&#45;&gt;driver -->
<g id="edge1" class="edge">
<title>raspi&#45;&gt;driver</title>
<path fill="none" stroke="#000000" d="M281.8729,-79.5929C302.9671,-82.8783 327.7943,-86.7452 349.7127,-90.1591"/>
<polygon fill="#000000" stroke="#000000" points="349.4616,-93.6621 359.8811,-91.7429 350.5389,-86.7455 349.4616,-93.6621"/>
<text text-anchor="middle" x="324.8647" y="-90.8" font-family="Helvetica,sans-Serif" font-size="14.00" fill="#000000">PWM</text>
</g>
<!-- motor_r -->
<g id="node5" class="node">
<title>motor_r</title>
<polygon fill="none" stroke="#c0c0c0" points="561.9785,-144 489.9785,-144 489.9785,-108 561.9785,-108 561.9785,-144"/>
<text text-anchor="middle" x="525.9785" y="-121.8" font-family="Helvetica,sans-Serif" font-size="14.00" fill="#000000">R&#45;Motor</text>
</g>
<!-- driver&#45;&gt;motor_r -->
<g id="edge2" class="edge">
<title>driver&#45;&gt;motor_r</title>
<path fill="none" stroke="#000000" d="M453.0204,-109.5162C461.877,-111.5172 471.1411,-113.6103 479.9806,-115.6075"/>
<polygon fill="#000000" stroke="#000000" points="479.2103,-119.0216 489.7358,-117.8115 480.753,-112.1937 479.2103,-119.0216"/>
</g>
<!-- motor_l -->
<g id="node6" class="node">
<title>motor_l</title>
<polygon fill="none" stroke="#c0c0c0" points="561.9785,-90 489.9785,-90 489.9785,-54 561.9785,-54 561.9785,-90"/>
<text text-anchor="middle" x="525.9785" y="-67.8" font-family="Helvetica,sans-Serif" font-size="14.00" fill="#000000">L&#45;Motor</text>
</g>
<!-- driver&#45;&gt;motor_l -->
<g id="edge3" class="edge">
<title>driver&#45;&gt;motor_l</title>
<path fill="none" stroke="#000000" d="M453.0204,-88.4838C461.877,-86.4828 471.1411,-84.3897 479.9806,-82.3925"/>
<polygon fill="#000000" stroke="#000000" points="480.753,-85.8063 489.7358,-80.1885 479.2103,-78.9784 480.753,-85.8063"/>
</g>
<!-- camera -->
<g id="node7" class="node">
<title>camera</title>
<polygon fill="none" stroke="#c0c0c0" points="105.3214,-90 6.3817,-90 6.3817,-54 105.3214,-54 105.3214,-90"/>
<text text-anchor="middle" x="55.8516" y="-67.8" font-family="Helvetica,sans-Serif" font-size="14.00" fill="#000000">USB Camera</text>
</g>
<!-- camera&#45;&gt;raspi -->
<g id="edge5" class="edge">
<title>camera&#45;&gt;raspi</title>
<path fill="none" stroke="#000000" d="M105.2317,-72C126.7313,-72 152.0926,-72 174.5378,-72"/>
<polygon fill="#000000" stroke="#000000" points="174.621,-75.5001 184.6209,-72 174.6209,-68.5001 174.621,-75.5001"/>
<text text-anchor="middle" x="144.0962" y="-74.8" font-family="Helvetica,sans-Serif" font-size="14.00" fill="#000000">USB</text>
</g>
<!-- iphone -->
<g id="node8" class="node">
<title>iphone</title>
<polygon fill="none" stroke="#c0c0c0" points="111.5551,-36 .148,-36 .148,0 111.5551,0 111.5551,-36"/>
<text text-anchor="middle" x="55.8516" y="-13.8" font-family="Helvetica,sans-Serif" font-size="14.00" fill="#000000">Remote Device</text>
</g>
<!-- iphone&#45;&gt;raspi -->
<g id="edge4" class="edge">
<title>iphone&#45;&gt;raspi</title>
<path fill="none" stroke="#000000" stroke-dasharray="5,2" d="M111.9415,-35.0859C131.9909,-41.1933 154.6204,-48.0866 174.8498,-54.2488"/>
<polygon fill="#000000" stroke="#000000" points="173.9801,-57.6426 184.566,-57.2086 176.0199,-50.9464 173.9801,-57.6426"/>
<text text-anchor="middle" x="144.0962" y="-50.8" font-family="Helvetica,sans-Serif" font-size="14.00" fill="#000000">Wifi</text>
</g>
</g>
</svg>
